# File created by Blade
# Date/Time:  Tue Sep 23 19:22:32 2014
# Frame Rate: 120.000 fps
#------------------------------------------------------
:FULLY-SPECIFIED
:DEGREES
1821
root 3.280995 34.763955 4.035533 127.180503 -17.426777 -46.276255
Spine -76.145244 -10.394937 27.153128
Head -5.688327 18.242220 46.767776
LeftShoulder -20.720472 36.188837 38.630854
LeftArm 99.464854 -78.122482 -128.131211
LeftForeArm 65.783259 -0.000000 111.163558
LeftHand 9.938797 -0.000000 31.716023
LeftHandThumb1 -26.253704 0.000000 33.147579
RightShoulder -48.818828 -43.677046 6.313146
RightArm 44.223903 66.260860 103.101992
RightForeArm 69.451717 -0.000000 25.351911
RightHand 11.334272 -0.000000 2.607507
RightHandThumb1 -24.326973 -0.000000 -32.862282
LeftUpLeg -118.081348 37.884828 -16.676680
LeftLeg 9.314895 -0.000000 -0.000000
LeftFoot -5.867394 12.398829 5.936287
LeftToeBase 4.115666 -0.000000 -0.000000
RightUpLeg 1.648421 -5.421300 -24.273503
RightLeg 82.249717 -0.000000 -0.000000
RightFoot 44.425518 21.867922 -3.352428
RightToeBase 21.357194 -0.000000 -0.000000
1822
root 3.325008 34.764501 4.067680 127.153801 -17.368784 -46.228132
Spine -75.981598 -10.348757 27.089792
Head -5.895299 18.133616 46.526579
LeftShoulder -20.668955 36.293963 38.656355
LeftArm 99.153863 -78.014804 -127.769388
LeftForeArm 66.018587 -0.000000 110.852713
LeftHand 9.851127 -0.000000 31.938754
LeftHandThumb1 -26.253704 0.000000 33.147579
RightShoulder -48.837400 -43.808064 6.488443
RightArm 44.429113 66.237606 103.634751
RightForeArm 69.179981 -0.000000 26.105901
RightHand 11.212748 0.000000 2.634643
RightHandThumb1 -24.326973 -0.000000 -32.862282
LeftUpLeg -118.090017 37.822072 -16.580602
LeftLeg 9.422774 -0.000000 -0.000000
LeftFoot -6.099862 12.286241 5.448691
LeftToeBase 4.304563 -0.000000 -0.000000
RightUpLeg 1.562450 -5.295262 -24.493925
RightLeg 82.612605 -0.000000 -0.000000
RightFoot 44.278338 21.565654 -3.686802
RightToeBase 21.652110 -0.000000 -0.000000
1823
root 3.368487 34.768033 4.102893 127.156535 -17.323191 -46.202649
Spine -75.835651 -10.287817 26.996177
Head -6.076699 18.047521 46.331243
LeftShoulder -20.547518 36.315918 38.688912
LeftArm 98.652887 -78.104660 -127.219335
LeftForeArm 66.440441 -0.000000 110.598068
LeftHand 9.341548 0.000000 32.321917
LeftHandThumb1 -26.253704 0.000000 33.147579
RightShoulder -48.907728 -43.914389 6.690335
RightArm 44.857890 66.262779 104.445500
RightForeArm 68.683438 0.000000 26.945728
RightHand 11.011214 -0.000000 2.517741
RightHandThumb1 -24.326973 -0.000000 -32.862282
LeftUpLeg -118.144191 37.707309 -16.672931
LeftLeg 9.398994 -0.000000 -0.000000
LeftFoot -6.279879 12.057005 5.010989
LeftToeBase 4.376808 -0.000000 -0.000000
RightUpLeg 1.426401 -5.160929 -24.710053
RightLeg 83.023430 -0.000000 -0.000000
RightFoot 44.171961 21.206068 -3.986714
RightToeBase 22.435338 -0.000000 -0.000000
1824
root 3.408743 34.772744 4.141992 127.205028 -17.321125 -46.154557
Spine -75.771673 -10.255262 26.869015
Head -6.292935 17.961784 46.180177
LeftShoulder -20.438093 36.321846 38.782276
LeftArm 98.590999 -78.030702 -127.206184
LeftForeArm 66.794678 -0.000000 110.430400
LeftHand 9.143853 -0.000000 32.549112
LeftHandThumb1 -26.253704 0.000000 33.147579
RightShoulder -48.948376 -43.930143 6.842066
RightArm 44.813401 66.266739 104.784911
RightForeArm 68.517458 -0.000000 27.905455
RightHand 10.909716 -0.000000 2.362830
RightHandThumb1 -24.326973 -0.000000 -32.862282
LeftUpLeg -118.187849 37.527918 -16.841313
LeftLeg 9.263303 -0.000000 -0.000000
LeftFoot -6.581072 11.743337 4.371528
LeftToeBase 4.920092 -0.000000 -0.000000
RightUpLeg 1.269464 -5.052900 -24.903403
RightLeg 83.441514 -0.000000 -0.000000
RightFoot 43.977528 20.821028 -4.330364
RightToeBase 22.907194 -0.000000 -0.000000
1825
root 3.443186 34.778584 4.179908 127.238150 -17.299764 -46.168089
Spine -75.673435 -10.216814 26.734638
Head -6.448448 17.897479 46.103995
LeftShoulder -20.326456 36.313107 38.892735
LeftArm 98.689811 -78.019158 -127.398918
LeftForeArm 66.947358 -0.000000 110.403954
LeftHand 8.974882 -0.000000 32.617614
LeftHandThumb1 -26.253704 0.000000 33.147579
RightShoulder -49.072656 -43.984464 7.128274
RightArm 45.127122 66.264213 105.434423
RightForeArm 68.064139 0.000000 28.847166
RightHand 10.629060 -0.000000 2.363197
RightHandThumb1 -24.326973 -0.000000 -32.862282
LeftUpLeg -118.205766 37.426341 -17.037618
LeftLeg 9.087467 -0.000000 -0.000000
LeftFoot -6.669695 11.488521 4.081355
LeftToeBase 4.837254 -0.000000 -0.000000
RightUpLeg 1.105473 -4.849702 -25.068814
RightLeg 83.848435 -0.000000 -0.000000
RightFoot 43.841754 20.482191 -4.645186
RightToeBase 22.325231 -0.000000 -0.000000
1826
root 3.475069 34.785679 4.218011 127.272716 -17.279881 -46.177096
Spine -75.589840 -10.203030 26.625357
Head -6.612160 17.886257 46.068767
LeftShoulder -20.254042 36.343697 38.996744
LeftArm 99.311847 -77.903019 -128.174525
LeftForeArm 66.831374 0.000000 110.466609
LeftHand 9.019651 -0.000000 32.542543
LeftHandThumb1 -26.253704 0.000000 33.147579
RightShoulder -49.106475 -43.980184 7.330655
RightArm 45.188098 66.269878 105.872779
RightForeArm 67.672978 -0.000000 29.910724
RightHand 10.438101 0.000000 2.105805
RightHandThumb1 -24.326973 -0.000000 -32.862282
LeftUpLeg -118.193609 37.375498 -17.187097
LeftLeg 8.937381 -0.000000 -0.000000
LeftFoot -6.909576 11.031029 3.509106
LeftToeBase 5.158461 -0.000000 -0.000000
RightUpLeg 0.941916 -4.639014 -25.198962
RightLeg 84.269060 -0.000000 -0.000000
RightFoot 43.687973 20.159220 -4.826946
RightToeBase 23.015670 -0.000000 -0.000000
1827
root 3.517539 34.793983 4.257264 127.393399 -17.298091 -46.114439
Spine -75.595670 -10.196351 26.534197
Head -6.831489 17.861153 46.011790
LeftShoulder -20.173199 36.299287 39.098437
LeftArm 100.090895 -77.851225 -129.173935
LeftForeArm 66.814166 -0.000000 110.632218
LeftHand 9.006645 -0.000000 32.522056
LeftHandThumb1 -26.253704 0.000000 33.147579
RightShoulder -49.214837 -43.958280 7.581275
RightArm 45.273646 66.229985 106.336768
RightForeArm 67.305681 -0.000000 30.981452
RightHand 10.277802 -0.000000 1.795729
RightHandThumb1 -24.326973 -0.000000 -32.862282
LeftUpLeg -118.228045 37.246585 -17.219889
LeftLeg 8.869699 -0.000000 -0.000000
LeftFoot -7.037870 10.688512 3.051236
LeftToeBase 5.363138 -0.000000 -0.000000
RightUpLeg 0.693465 -4.576176 -25.349096
RightLeg 84.712698 -0.000000 -0.000000
RightFoot 43.682134 19.785970 -4.849895
RightToeBase 22.394203 -0.000000 -0.000000
1828
root 3.551636 34.802007 4.293006 127.450437 -17.264455 -46.072000
Spine -75.546600 -10.204934 26.504966
Head -7.028978 17.905750 45.968453
LeftShoulder -20.086354 36.287782 39.191053
LeftArm 101.096377 -77.923725 -130.439786
LeftForeArm 66.680462 -0.000000 110.874165
LeftHand 9.035070 -0.000000 32.465032
LeftHandThumb1 -26.253704 0.000000 33.147579
RightShoulder -49.370078 -44.009203 7.925634
RightArm 45.547787 66.124898 106.951410
RightForeArm 66.931350 0.000000 32.031449
RightHand 10.128126 -0.000000 1.617526
RightHandThumb1 -24.326973 -0.000000 -32.862282
LeftUpLeg -118.065037 37.310285 -16.888215
LeftLeg 8.864199 -0.000000 -0.000000
LeftFoot -7.015520 10.546324 2.748654
LeftToeBase 5.295562 -0.000000 -0.000000
RightUpLeg 0.482628 -4.457488 -25.459606
RightLeg 85.152606 -0.000000 -0.000000
RightFoot 43.577118 19.659309 -5.074353
RightToeBase 22.577540 -0.000000 -0.000000
1829
root 3.587628 34.810915 4.325695 127.515189 -17.234733 -45.983199
Spine -75.508316 -10.240338 26.528199
Head -7.257444 17.959298 45.914808
LeftShoulder -20.143873 36.277327 39.149643
LeftArm 102.453818 -77.851569 -131.962343
LeftForeArm 66.652390 -0.000000 111.155139
LeftHand 9.002075 -0.000000 32.442254
LeftHandThumb1 -26.253704 0.000000 33.147579
RightShoulder -49.467611 -43.971034 8.177236
RightArm 45.487039 66.006052 107.270225
RightForeArm 66.556151 0.000000 33.136515
RightHand 10.019952 -0.000000 1.399432
RightHandThumb1 -24.326973 -0.000000 -32.862282
LeftUpLeg -117.935321 37.423408 -16.396286
LeftLeg 9.086910 -0.000000 -0.000000
LeftFoot -7.045620 10.269718 2.406428
LeftToeBase 5.330590 -0.000000 -0.000000
RightUpLeg 0.269147 -4.394480 -25.540147
RightLeg 85.632346 -0.000000 -0.000000
RightFoot 43.435681 19.423586 -5.208193
RightToeBase 22.725948 -0.000000 -0.000000
1830
root 3.622031 34.821572 4.355081 127.542772 -17.222433 -45.846062
Spine -75.470819 -10.334935 26.522572
Head -7.514936 18.031249 45.880870
LeftShoulder -20.129624 36.237344 39.141289
LeftArm 103.956683 -77.866843 -133.616055
LeftForeArm 66.794252 0.000000 111.463653
LeftHand 8.862230 -0.000000 32.445425
LeftHandThumb1 -26.253704 0.000000 33.147579
RightShoulder -49.717703 -44.052291 8.615633
RightArm 45.687411 65.840234 107.909298
RightForeArm 66.205989 -0.000000 34.311256
RightHand 9.896304 -0.000000 1.267160
RightHandThumb1 -24.326973 -0.000000 -32.862282
LeftUpLeg -117.685105 37.599947 -15.629759
LeftLeg 9.473224 -0.000000 -0.000000
LeftFoot -6.983434 10.005097 2.098488
LeftToeBase 5.008010 -0.000000 -0.000000
RightUpLeg 0.096094 -4.401760 -25.611765
RightLeg 86.178843 -0.000000 -0.000000
RightFoot 43.121106 19.155472 -5.547763
RightToeBase 23.039805 -0.000000 -0.000000
1831
root 3.654233 34.835506 4.379357 127.547939 -17.211444 -45.666763
Spine -75.444664 -10.488277 26.557939
Head -7.729740 18.024592 45.885971
LeftShoulder -20.133297 36.167305 39.107166
LeftArm 105.579372 -77.947067 -135.329093
LeftForeArm 66.807733 -0.000000 111.762553
LeftHand 8.814080 0.000000 32.424564
LeftHandThumb1 -26.253704 0.000000 33.147579
RightShoulder -49.888695 -44.090553 9.017161
RightArm 45.695303 65.723719 108.413845
RightForeArm 65.873079 0.000000 35.588497
RightHand 9.770803 0.000000 1.226669
RightHandThumb1 -24.326973 -0.000000 -32.862282
LeftUpLeg -117.314899 37.875634 -14.551463
LeftLeg 10.021688 -0.000000 -0.000000
LeftFoot -6.849835 9.776755 1.927058
LeftToeBase 4.416143 -0.000000 -0.000000
RightUpLeg -0.074628 -4.530882 -25.684724
RightLeg 86.801994 -0.000000 -0.000000
RightFoot 42.967190 18.615722 -5.846962
RightToeBase 23.312569 -0.000000 -0.000000
1832
root 3.688941 34.852640 4.399869 127.556834 -17.233860 -45.491251
Spine -75.413915 -10.679217 26.559635
Head -7.988542 18.075668 45.907324
LeftShoulder -20.169661 36.103775 39.068813
LeftArm 107.370508 -77.932917 -137.207657
LeftForeArm 66.983978 0.000000 112.036947
LeftHand 8.730022 -0.000000 32.398277
LeftHandThumb1 -26.253704 0.000000 33.147579
RightShoulder -50.180024 -44.169123 9.546947
RightArm 45.793926 65.513011 109.033465
RightForeArm 65.419141 0.000000 36.904982
RightHand 9.601415 -0.000000 1.404286
RightHandThumb1 -24.326973 -0.000000 -32.862282
LeftUpLeg -116.781424 38.245677 -13.197161
LeftLeg 10.634856 -0.000000 -0.000000
LeftFoot -6.661093 9.696305 1.741823
LeftToeBase 3.594129 -0.000000 -0.000000
RightUpLeg -0.254623 -4.616444 -25.769376
RightLeg 87.522323 -0.000000 -0.000000
RightFoot 42.822851 18.062172 -6.011694
RightToeBase 23.307534 -0.000000 -0.000000
